<?xml version="1.0" encoding="utf-8"?>
<!-- Generator: Adobe Illustrator 16.0.0, SVG Export Plug-In . SVG Version: 6.00 Build 0)  -->
<!DOCTYPE svg PUBLIC "-//W3C//DTD SVG 1.1//EN" "http://www.w3.org/Graphics/SVG/1.1/DTD/svg11.dtd">
<svg version="1.1" id="Camada_1" xmlns="http://www.w3.org/2000/svg" xmlns:xlink="http://www.w3.org/1999/xlink" x="0px" y="0px"
	 width="146px" height="166px" viewBox="12.001 -44.499 146 166" enable-background="new 12.001 -44.499 146 166"
	 xml:space="preserve">
<g id="Layer_2" display="none">
	<rect x="-60" y="-6" display="inline" fill="#EB7077" width="701" height="788"/>
</g>
<g>
	<polygon fill="#7EDBFC" points="84.229,37.878 117.593,57.44 117.767,18.14 84.229,-1.074 	"/>
	<polygon fill="#57B7DF" points="85.167,38.472 52.782,57.44 52.782,19.412 85.167,0.858 	"/>
	<path display="none" fill="#256EB7" d="M85.167-35.233L19.702,2.563v75.592l65.465,37.795l65.465-37.795V2.563L85.167-35.233z
		 M117.298,57.317L85.167,75.87L53.036,57.317V20.216L85.167,1.666l32.131,18.551V57.317z"/>
	<polygon fill="none" points="85.167,75.87 117.298,57.317 117.298,21.808 85.167,40.358 53.036,21.808 53.036,57.317 	"/>
	<polygon fill="#7EDBFC" points="117.298,20.216 150.632,2.563 150.632,2.563 	"/>
	<polygon fill="#256EB7" points="85.167,75.87 53.036,57.317 53.036,20.216 19.702,2.563 19.702,78.155 85.167,115.95 
		150.632,78.155 150.632,39.22 117.298,57.317 	"/>
	<polygon fill="#00A6DC" points="19.702,2.563 19.702,2.563 53.036,20.216 53.036,20.216 85.167,1.666 117.298,20.216 
		117.298,20.216 150.632,2.563 150.632,2.563 85.167,-35.233 	"/>
</g>
</svg>
