<?xml version="1.0" encoding="utf-8"?>
<!-- Generator: Adobe Illustrator 16.0.0, SVG Export Plug-In . SVG Version: 6.00 Build 0)  -->
<!DOCTYPE svg PUBLIC "-//W3C//DTD SVG 1.1//EN" "http://www.w3.org/Graphics/SVG/1.1/DTD/svg11.dtd">
<svg version="1.1" id="Layer_1" xmlns="http://www.w3.org/2000/svg" xmlns:xlink="http://www.w3.org/1999/xlink" x="0px" y="0px"
	 width="168px" height="169.25px" viewBox="-33.167 -40.4 168 169.25" enable-background="new -33.167 -40.4 168 169.25"
	 xml:space="preserve">
<path fill="none" d="M194.8,54.9"/>
<g>
	<polygon fill="#7EDBFC" points="50.335,25.854 79.563,42.99 79.715,8.562 50.335,-8.269 	"/>
	<polygon fill="#57B7DF" points="51.157,26.373 22.789,42.99 22.789,9.676 51.157,-6.576 	"/>
	<path display="none" fill="#256EB7" d="M51.157-38.191L-6.189-5.083v66.218l57.346,33.107l57.347-33.107V-5.083L51.157-38.191z
		 M79.303,42.881L51.157,59.133L23.01,42.881v-32.5L51.157-5.87l28.146,16.25V42.881z"/>
	<polygon fill="none" points="51.157,59.133 79.303,42.881 79.303,11.775 51.157,28.025 23.01,11.775 23.01,42.881 	"/>
	<polygon fill="#7EDBFC" points="79.303,10.381 108.504,-5.083 108.504,-5.083 	"/>
	<polygon fill="#256EB7" points="51.157,59.133 23.01,42.881 23.01,10.381 -6.189,-5.083 -6.189,61.135 51.157,94.243 
		108.504,61.135 108.504,27.028 79.303,42.881 	"/>
	<polygon fill="#00A6DC" points="-6.189,-5.083 -6.189,-5.083 23.01,10.381 23.01,10.381 51.157,-5.87 79.303,10.381 79.303,10.381 
		108.504,-5.083 108.504,-5.083 51.157,-38.191 	"/>
</g>
<g>
	<path fill="#256EB7" d="M-15.058,124.699c0,0-3.744,0.8-6.271,0.8c-6.688,0-8.224-3.839-8.224-11.391
		c0-8.063,1.952-11.455,8.224-11.455c2.784,0,6.304,0.863,6.304,0.863l-0.128,3.296c0,0-3.744-0.479-5.664-0.479
		c-3.872,0-4.863,1.855-4.863,7.775c0,5.632,0.768,7.711,4.992,7.711c1.728,0,5.535-0.512,5.535-0.512L-15.058,124.699z"/>
	<path fill="#256EB7" d="M-11.51,102.556h3.647v22.591h-3.647V102.556z"/>
	<path fill="#256EB7" d="M8.806,121.883l0.064,2.848c0,0-3.648,0.768-6.496,0.768c-4.832,0-6.72-2.527-6.72-8.159
		c0-5.823,2.496-8.543,6.943-8.543c4.544,0,6.816,2.336,6.816,7.295l-0.256,2.624h-9.823c0.032,2.336,0.992,3.456,3.584,3.456
		C5.446,122.171,8.806,121.883,8.806,121.883z M6.214,100.605l1.248,3.455l-7.936,2.561l-1.12-3.04L6.214,100.605z M5.798,115.868
		c0-2.784-0.928-3.808-3.2-3.808c-2.271,0-3.264,1.151-3.264,3.808H5.798z"/>
	<path fill="#256EB7" d="M23.265,109.404l-0.128,3.168c0,0-2.528-0.288-3.744-0.288c-3.264,0-4,1.216-4,4.672
		c0,3.84,0.672,5.088,4.032,5.088c1.216,0,3.744-0.288,3.744-0.288l0.096,3.168c0,0-3.264,0.575-4.96,0.575
		c-4.864,0-6.624-2.464-6.624-8.543c0-5.728,1.952-8.159,6.72-8.159C20.129,108.796,23.265,109.404,23.265,109.404z"/>
	<path fill="#256EB7" d="M26.653,102.716h3.648v3.872h-3.648V102.716z M26.653,109.18h3.648v15.967h-3.648V109.18z"/>
	<path fill="#256EB7" d="M48.218,117.083c0,5.151-1.664,8.415-7.167,8.415c-5.504,0-7.2-3.199-7.2-8.415
		c0-5.119,1.792-8.287,7.2-8.287C46.362,108.796,48.218,111.996,48.218,117.083z M44.506,117.083c0-3.359-0.864-4.96-3.456-4.96
		c-2.72,0-3.488,1.536-3.488,4.96c0,3.456,0.64,5.12,3.488,5.12S44.506,120.475,44.506,117.083z"/>
	<path fill="#00A6DC" d="M64.436,104.892c0,0-4.415-0.544-6.271-0.544c-3.327,0-5.151,1.152-5.151,3.904
		c0,3.264,1.696,3.775,5.632,4.543c4.352,0.864,6.432,1.92,6.432,5.888c0,4.896-2.592,6.72-7.008,6.72
		c-2.432,0-6.815-0.607-6.815-0.607l0.192-1.824c0,0,4.32,0.544,6.592,0.544c3.327,0,5.023-1.312,5.023-4.735
		c0-2.784-1.44-3.488-5.152-4.16c-4.511-0.864-6.911-1.824-6.911-6.304c0-4.159,2.752-5.855,7.167-5.855
		c2.465,0,6.432,0.608,6.432,0.608L64.436,104.892z"/>
	<path fill="#00A6DC" d="M81.711,116.923c0,5.728-1.313,8.544-6.656,8.544c-5.375,0-6.752-2.528-6.752-8.576
		c0-5.663,1.793-8.031,6.752-8.031C79.695,108.86,81.711,111.324,81.711,116.923z M79.727,116.923c0-4.575-1.408-6.335-4.672-6.335
		c-3.68,0-4.799,1.535-4.799,6.303c0,4.864,0.672,6.848,4.799,6.848C79.184,123.739,79.727,121.5,79.727,116.923z"/>
	<path fill="#00A6DC" d="M98.314,109.148v15.999h-1.889v-1.12c0,0-2.496,1.44-4.928,1.44c-4.447,0-5.344-1.952-5.344-7.968v-8.352
		h1.889v8.287c0,4.8,0.48,6.304,3.68,6.304c2.4,0,4.703-1.344,4.703-1.344v-13.247H98.314z"/>
	<path fill="#00A6DC" d="M103.014,109.148h11.871v1.729l-9.535,12.543h9.535v1.728h-11.871v-1.728l9.566-12.543h-9.566V109.148z"/>
	<path fill="#00A6DC" d="M130.305,122.491c0.096,0.929,1.023,1.28,2.08,1.408l-0.098,1.536c-1.566,0-2.75-0.32-3.615-1.28
		c0,0-3.008,1.313-6.016,1.313c-2.814,0-4.383-1.632-4.383-4.832c0-2.943,1.471-4.352,4.703-4.672l5.439-0.544v-1.439
		c0-2.4-1.088-3.36-3.135-3.36c-2.305,0-6.049,0.448-6.049,0.448l-0.096-1.567c0,0,3.68-0.641,6.271-0.641
		c3.328,0,4.896,1.664,4.896,5.12V122.491z M123.201,117.467c-2.145,0.192-2.943,1.216-2.943,3.136c0,2.048,0.895,3.2,2.654,3.2
		c2.529,0,5.504-1.088,5.504-1.088v-5.792L123.201,117.467z"/>
</g>
</svg>
